<svg width="1920" height="235" viewBox="0 0 1920 235" fill="none" xmlns="http://www.w3.org/2000/svg">
<path d="M416 197.003C671 197.003 769.5 10.5028 1030.5 112.503C1291.5 214.504 1513.5 161.003 1667.5 161.003C1821.5 161.003 1920 234.504 1920 234.504H0V112.503C0 112.503 161 197.003 416 197.003Z" fill="#6F55D8" fill-opacity="0.5"/>
<path d="M457 0C853.5 -0.000109672 765.5 90.9999 1225 90.9999C1684.5 90.9999 1920 233.5 1920 233.5V234.5H0C0 234.5 60.5 0.000109673 457 0Z" fill="#6F55D8" fill-opacity="0.5"/>
<path d="M1249 234.651C1249 234.651 1317.85 136.994 1564.58 136.994C1811.31 136.994 1920 32 1920 32V235H1249V234.651Z" fill="#6F55D8" fill-opacity="0.5"/>
</svg>
